<?xml version="1.0" encoding="UTF-8" standalone="no"?> <svg width="24" height="24" viewBox="0 0 24 24" fill="none" xmlns="http://www.w3.org/2000/svg">
<path opacity="0.4" d="M4 1C2.34315 1 1 2.34315 1 4V20C1 21.6569 2.34315 23 4 23H11C12.6569 23 14 21.6569 14 20V4C14 2.34315 12.6569 1 11 1H4Z" fill="black"/>
<path d="M17.7071 6.2929C17.3166 5.90237 16.6834 5.90237 16.2929 6.29289C16.0976 6.48815 16 6.74408 16 7L16 10.5H6.5C5.67159 10.5 5.00002 11.1716 5 12C4.99998 12.8284 5.67156 13.5 6.5 13.5H16L16 17C16 17.2559 16.0976 17.5119 16.2929 17.7071C16.6834 18.0976 17.3166 18.0976 17.7071 17.7071L22.707 12.7071C23.0975 12.3166 23.0975 11.6834 22.707 11.2929L17.7071 6.2929Z" fill="black"/>
</svg>
